# xmcd
#
# Track frame offsets:
#	150
#	14302
#	23112
#	34330
#	44090
#	53852
#	67040
#	79567
#	90765
#	100515
#	111272
#	124632
#	138245
#	152185
#	162327
#	173530
#	183425
#	197247
#	206507
#	218992
#	230527
#	241312
#	251422
#	259137
#	269505
#	281505
#	293225
#	304555
#	317345
#	329462
#	341532
#
# Disc length: 4696 seconds
#
# Revision: 3
# Processed by: cddbd v1.5.2PL0 Copyright (c) Steve Scherf et al.
# Submitted via: audiograbber 1.83.01
#
DISCID=b612561f
DTITLE=Monroe, Bill - Bluegrass 1959-1969 - Volume 1
DYEAR=1991
DGENRE=Bluegrass
TTITLE0=When The Phone Rang
TTITLE1=Tomorrow I'll Be Gone
TTITLE2=Dark As The Night, Blue As The Day
TTITLE3=Stoney Lonesome
TTITLE4=Lonesome Wind Blues
TTITLE5=Thinking About You
TTITLE6=Come Go With Me
TTITLE7=Sold Down The River
TTITLE8=Linda Lou
TTITLE9=You Live In A World All Your Own
TTITLE10=Little Joe
TTITLE11=Put My Rubber Doll Away
TTITLE12=Seven Year Blues
TTITLE13=Time Changes Everything
TTITLE14=Lonesome Road Blues
TTITLE15=Big River
TTITLE16=Flowers Of Love
TTITLE17=It's Mighty Dark To Travel
TTITLE18=Bluegrass Part 1 (Bluegrass Twist)
TTITLE19=Little Maggie
TTITLE20=I'm Going Back To Old Kentucky
TTITLE21=Toy Heart
TTITLE22=Shady Grove
TTITLE23=Nine Pound Hammer
TTITLE24=Live And Let Live
TTITLE25=Danny Boy
TTITLE26=Cotton Fields
TTITLE27=Journey's End
TTITLE28=John Hardy
TTITLE29=Bugle Call Rag
TTITLE30=Old Joe Clark
EXTD=
EXTT0=
EXTT1=
EXTT2=
EXTT3=
EXTT4=
EXTT5=
EXTT6=
EXTT7=
EXTT8=
EXTT9=
EXTT10=
EXTT11=
EXTT12=
EXTT13=
EXTT14=
EXTT15=
EXTT16=
EXTT17=
EXTT18=
EXTT19=
EXTT20=
EXTT21=
EXTT22=
EXTT23=
EXTT24=
EXTT25=
EXTT26=
EXTT27=
EXTT28=
EXTT29=
EXTT30=
PLAYORDER=
